<?xml version="1.0" standalone="no"?>
<!DOCTYPE svg PUBLIC "-//W3C//DTD SVG 20010904//EN"
 "http://www.w3.org/TR/2001/REC-SVG-20010904/DTD/svg10.dtd">
<svg version="1.0" xmlns="http://www.w3.org/2000/svg"
 width="408.000000pt" height="128.000000pt" viewBox="0 0 408.000000 128.000000"
 preserveAspectRatio="xMidYMid meet">

<g transform="translate(0.000000,128.000000) scale(0.100000,-0.100000)"
fill="#000000" stroke="none">
<path d="M330 1159 c-141 -48 -213 -77 -230 -95 l-25 -24 0 -253 c0 -290 5
-315 82 -417 69 -93 315 -275 384 -286 28 -4 49 3 116 43 119 69 246 173 298
244 74 100 87 159 93 398 5 228 -1 265 -48 305 -30 24 -407 156 -446 156 -11
0 -111 -32 -224 -71z m140 -416 c41 -100 78 -183 81 -183 3 0 41 83 84 185
l78 185 83 0 c46 0 84 -4 84 -9 0 -5 -54 -131 -120 -280 -66 -149 -120 -275
-120 -280 0 -29 -136 -45 -158 -18 -15 18 -252 557 -252 574 0 11 16 13 83 11
l82 -3 75 -182z"/>
<path d="M2240 954 c-35 -41 -1 -114 52 -114 56 0 86 60 52 108 -18 27 -84 31
-104 6z"/>
<path d="M1250 943 c1 -5 44 -138 98 -298 l97 -290 64 0 64 0 18 50 c9 28 53
154 97 280 44 127 83 238 87 248 7 16 2 18 -56 15 l-63 -3 -68 -205 c-37 -113
-68 -213 -68 -222 0 -10 -4 -18 -10 -18 -5 0 -10 7 -10 15 0 8 -25 95 -56 192
-31 98 -61 193 -66 211 -9 31 -10 32 -68 32 -33 0 -60 -3 -60 -7z"/>
<path d="M2440 650 l0 -300 55 0 55 0 0 300 0 300 -55 0 -55 0 0 -300z"/>
<path d="M2640 649 l0 -301 158 3 c151 4 159 5 205 32 104 62 117 185 26 261
l-32 27 31 32 c43 44 51 99 23 161 -32 73 -69 86 -258 86 l-153 0 0 -301z
m296 188 c30 -35 31 -71 1 -101 -26 -26 -100 -41 -147 -31 -30 7 -30 7 -30 79
0 40 3 76 8 80 4 4 38 6 76 4 60 -3 71 -7 92 -31z m11 -241 c36 -31 39 -95 5
-128 -19 -20 -35 -24 -107 -27 l-85 -3 0 91 0 91 79 0 c70 0 83 -3 108 -24z"/>
<path d="M1851 767 c-63 -32 -104 -93 -109 -165 -11 -154 78 -252 228 -252 71
0 132 22 165 59 19 22 19 22 -10 46 -37 30 -36 30 -81 0 -42 -29 -91 -32 -134
-10 -28 14 -60 60 -60 85 0 7 48 11 153 10 l152 -2 -3 57 c-2 59 -26 118 -59
147 -56 51 -168 63 -242 25z m137 -68 c29 -10 62 -46 62 -69 0 -6 -38 -10
-100 -10 -107 0 -115 5 -82 47 16 21 53 41 78 42 6 1 25 -4 42 -10z"/>
<path d="M2240 570 l0 -220 55 0 55 0 0 220 0 220 -55 0 -55 0 0 -220z"/>
<path d="M3252 764 c-75 -37 -105 -87 -110 -181 -4 -63 -1 -77 23 -122 16 -28
45 -62 68 -78 37 -25 48 -28 128 -28 82 0 90 2 130 31 62 45 89 101 89 184 0
83 -28 142 -89 185 -36 25 -54 30 -114 33 -62 3 -79 0 -125 -24z m153 -68 c43
-18 65 -61 65 -128 0 -68 -26 -112 -74 -128 -82 -27 -146 30 -146 128 0 66 19
104 62 125 41 20 50 21 93 3z"/>
<path d="M3596 778 c4 -7 34 -53 66 -102 32 -49 58 -95 58 -101 0 -6 -31 -58
-70 -114 -38 -57 -70 -105 -70 -107 0 -2 27 -4 59 -4 l59 0 44 70 c24 38 46
69 50 70 4 0 27 -31 52 -70 l46 -70 60 0 60 0 -17 28 c-10 15 -41 62 -70 104
-29 43 -53 84 -53 91 0 8 32 59 70 115 l71 102 -63 0 -63 0 -44 -72 c-33 -53
-47 -68 -53 -57 -5 8 -25 40 -44 72 l-36 57 -59 0 c-46 0 -58 -3 -53 -12z"/>
</g>
</svg>
