<?xml version="1.0" standalone="no"?>
<!DOCTYPE svg PUBLIC "-//W3C//DTD SVG 20010904//EN"
 "http://www.w3.org/TR/2001/REC-SVG-20010904/DTD/svg10.dtd">
<svg version="1.0" xmlns="http://www.w3.org/2000/svg"
 width="301.000000pt" height="352.000000pt" viewBox="0 0 301.000000 352.000000"
 preserveAspectRatio="xMidYMid meet">

<g transform="translate(0.000000,352.000000) scale(0.100000,-0.100000)"
fill="#000000" stroke="none">
<path d="M1375 3402 c-44 -16 -303 -109 -575 -207 -272 -97 -511 -186 -531
-196 -48 -24 -94 -71 -122 -123 -22 -41 -22 -42 -22 -606 0 -550 1 -568 23
-670 120 -552 445 -966 1092 -1389 256 -168 293 -165 614 49 635 426 950 867
1028 1445 19 145 19 1093 -1 1149 -18 52 -74 112 -130 141 -57 28 -385 152
-951 357 -244 88 -301 95 -425 50z m1066 -752 c10 -6 19 -18 19 -27 0 -9 -111
-235 -246 -502 -136 -267 -330 -650 -431 -851 -102 -201 -196 -375 -210 -387
-34 -32 -85 -30 -122 5 -30 27 -184 323 -661 1274 -135 269 -227 464 -224 473
5 13 36 15 218 15 116 0 216 -4 223 -8 14 -9 450 -900 485 -992 9 -24 10 -24
21 -5 11 21 318 653 416 860 32 66 64 125 72 132 21 17 56 20 247 22 103 0
181 -3 193 -9z"/>
</g>
</svg>
